<?xml version="1.0" encoding="UTF-8" standalone="no"?>
<!DOCTYPE svg PUBLIC "-//W3C//DTD SVG 1.1//EN"
 "http://www.w3.org/Graphics/SVG/1.1/DTD/svg11.dtd">
<!-- Generated by graphviz version 2.40.1 (20161225.0304)
 -->
<!-- Title: state transitions Pages: 1 -->
<svg width="366pt" height="434pt"
 viewBox="0.00 0.00 365.50 434.00" xmlns="http://www.w3.org/2000/svg" xmlns:xlink="http://www.w3.org/1999/xlink">
<g id="graph0" class="graph" transform="scale(1 1) rotate(0) translate(4 430)">
<title>state transitions</title>
<polygon fill="#ffffff" stroke="transparent" points="-4,4 -4,-430 361.502,-430 361.502,4 -4,4"/>
<g id="clust1" class="cluster state regular">
<title>cluster_next_state</title>
<path fill="none" stroke="#000000" stroke-width="2" d="M20,-8C20,-8 309,-8 309,-8 315,-8 321,-14 321,-20 321,-20 321,-406 321,-406 321,-412 315,-418 309,-418 309,-418 20,-418 20,-418 14,-418 8,-412 8,-406 8,-406 8,-20 8,-20 8,-14 14,-8 20,-8"/>
<text text-anchor="start" x="137.3208" y="-399.2" font-family="Helvetica,sans-Serif" font-size="12.00" fill="#000000">next_state</text>
</g>
<!-- next_state -->
<!-- S0 -->
<g id="node2" class="node state regular">
<title>S0</title>
<polygon fill="#ffffff" fill-opacity="0.003922" stroke="transparent" stroke-width="2" points="183,-380 127,-380 127,-344 183,-344 183,-380"/>
<text text-anchor="start" x="147.6632" y="-358.2" font-family="Helvetica,sans-Serif" font-size="12.00" fill="#000000">S0</text>
<path fill="none" stroke="#000000" stroke-width="2" d="M139.3333,-345C139.3333,-345 170.6667,-345 170.6667,-345 176.3333,-345 182,-350.6667 182,-356.3333 182,-356.3333 182,-367.6667 182,-367.6667 182,-373.3333 176.3333,-379 170.6667,-379 170.6667,-379 139.3333,-379 139.3333,-379 133.6667,-379 128,-373.3333 128,-367.6667 128,-367.6667 128,-356.3333 128,-356.3333 128,-350.6667 133.6667,-345 139.3333,-345"/>
</g>
<!-- S0&#45;&gt;S0 -->
<g id="edge2" class="edge transition">
<title>S0&#45;&gt;S0</title>
<path fill="none" stroke="#000000" d="M183.0183,-366.8247C194.888,-367.1883 205,-365.5801 205,-362 205,-359.5387 200.2205,-358.0094 193.3762,-357.4121"/>
<polygon fill="#000000" stroke="#000000" points="193.0957,-353.9049 183.0183,-357.1753 192.9356,-360.903 193.0957,-353.9049"/>
<text text-anchor="start" x="205" y="-359" font-family="Helvetica,sans-Serif" font-size="10.00" fill="#000000">not (input_bit = &#39;1&#39;) &#160;&#160;</text>
</g>
<!-- S1 -->
<g id="node3" class="node state regular">
<title>S1</title>
<polygon fill="#ffffff" fill-opacity="0.003922" stroke="transparent" stroke-width="2" points="90,-298 34,-298 34,-262 90,-262 90,-298"/>
<text text-anchor="start" x="54.6632" y="-276.2" font-family="Helvetica,sans-Serif" font-size="12.00" fill="#000000">S1</text>
<path fill="none" stroke="#000000" stroke-width="2" d="M46.3333,-263C46.3333,-263 77.6667,-263 77.6667,-263 83.3333,-263 89,-268.6667 89,-274.3333 89,-274.3333 89,-285.6667 89,-285.6667 89,-291.3333 83.3333,-297 77.6667,-297 77.6667,-297 46.3333,-297 46.3333,-297 40.6667,-297 35,-291.3333 35,-285.6667 35,-285.6667 35,-274.3333 35,-274.3333 35,-268.6667 40.6667,-263 46.3333,-263"/>
</g>
<!-- S0&#45;&gt;S1 -->
<g id="edge1" class="edge transition">
<title>S0&#45;&gt;S1</title>
<path fill="none" stroke="#000000" d="M126.5935,-355.8499C100.2584,-349.5043 63.9127,-338.88 55.498,-327 51.686,-321.6182 50.8943,-315.0056 51.6066,-308.4585"/>
<polygon fill="#000000" stroke="#000000" points="55.0868,-308.92 53.746,-298.4103 48.2402,-307.4622 55.0868,-308.92"/>
<text text-anchor="start" x="55" y="-318" font-family="Helvetica,sans-Serif" font-size="10.00" fill="#000000">input_bit = &#39;1&#39; &#160;&#160;</text>
</g>
<!-- S1&#45;&gt;S0 -->
<g id="edge4" class="edge transition">
<title>S1&#45;&gt;S0</title>
<path fill="none" stroke="#000000" d="M90.1077,-292.2755C101.4473,-298.0986 114.1495,-305.8082 124,-315 130.231,-320.8143 135.8135,-328.1198 140.4664,-335.2264"/>
<polygon fill="#000000" stroke="#000000" points="137.6313,-337.2984 145.8419,-343.9944 143.599,-333.6397 137.6313,-337.2984"/>
<text text-anchor="start" x="134" y="-318" font-family="Helvetica,sans-Serif" font-size="10.00" fill="#000000">not (input_bit = &#39;0&#39;) &#160;&#160;</text>
</g>
<!-- S2 -->
<g id="node4" class="node state regular">
<title>S2</title>
<polygon fill="#ffffff" fill-opacity="0.003922" stroke="transparent" stroke-width="2" points="135,-216 79,-216 79,-180 135,-180 135,-216"/>
<text text-anchor="start" x="99.6632" y="-194.2" font-family="Helvetica,sans-Serif" font-size="12.00" fill="#000000">S2</text>
<path fill="none" stroke="#000000" stroke-width="2" d="M91.3333,-181C91.3333,-181 122.6667,-181 122.6667,-181 128.3333,-181 134,-186.6667 134,-192.3333 134,-192.3333 134,-203.6667 134,-203.6667 134,-209.3333 128.3333,-215 122.6667,-215 122.6667,-215 91.3333,-215 91.3333,-215 85.6667,-215 80,-209.3333 80,-203.6667 80,-203.6667 80,-192.3333 80,-192.3333 80,-186.6667 85.6667,-181 91.3333,-181"/>
</g>
<!-- S1&#45;&gt;S2 -->
<g id="edge3" class="edge transition">
<title>S1&#45;&gt;S2</title>
<path fill="none" stroke="#000000" d="M67.3904,-261.5633C70.3613,-252.6465 74.4716,-241.9606 79.498,-233 81.1237,-230.1018 82.9792,-227.1898 84.9414,-224.3503"/>
<polygon fill="#000000" stroke="#000000" points="87.886,-226.2551 91.0252,-216.136 82.2608,-222.0889 87.886,-226.2551"/>
<text text-anchor="start" x="79" y="-236" font-family="Helvetica,sans-Serif" font-size="10.00" fill="#000000">input_bit = &#39;0&#39; &#160;&#160;</text>
</g>
<!-- S2&#45;&gt;S0 -->
<g id="edge6" class="edge transition">
<title>S2&#45;&gt;S0</title>
<path fill="none" stroke="#000000" d="M130.8154,-216.0084C136.8001,-221.1353 142.9503,-226.9748 148,-233 169.5185,-258.6753 160.6481,-276.2927 186.164,-298 202.08,-311.5403 218.1937,-297.7584 230,-315 242.493,-333.2444 217.2443,-345.8285 192.736,-353.3511"/>
<polygon fill="#000000" stroke="#000000" points="191.7719,-349.9864 183.1053,-356.0806 193.6807,-356.7211 191.7719,-349.9864"/>
<text text-anchor="start" x="186" y="-277" font-family="Helvetica,sans-Serif" font-size="10.00" fill="#000000">not (input_bit = &#39;0&#39;) &#160;&#160;</text>
</g>
<!-- S3 -->
<g id="node5" class="node state regular">
<title>S3</title>
<polygon fill="#ffffff" fill-opacity="0.003922" stroke="transparent" stroke-width="2" points="182,-134 126,-134 126,-98 182,-98 182,-134"/>
<text text-anchor="start" x="146.6632" y="-112.2" font-family="Helvetica,sans-Serif" font-size="12.00" fill="#000000">S3</text>
<path fill="none" stroke="#000000" stroke-width="2" d="M138.3333,-99C138.3333,-99 169.6667,-99 169.6667,-99 175.3333,-99 181,-104.6667 181,-110.3333 181,-110.3333 181,-121.6667 181,-121.6667 181,-127.3333 175.3333,-133 169.6667,-133 169.6667,-133 138.3333,-133 138.3333,-133 132.6667,-133 127,-127.3333 127,-121.6667 127,-121.6667 127,-110.3333 127,-110.3333 127,-104.6667 132.6667,-99 138.3333,-99"/>
</g>
<!-- S2&#45;&gt;S3 -->
<g id="edge5" class="edge transition">
<title>S2&#45;&gt;S3</title>
<path fill="none" stroke="#000000" d="M112.1084,-179.9396C115.0567,-170.9145 119.2307,-160.0233 124.498,-151 126.1807,-148.1174 128.1053,-145.2386 130.1473,-142.4399"/>
<polygon fill="#000000" stroke="#000000" points="133.0703,-144.3849 136.5002,-134.3606 127.5677,-140.0581 133.0703,-144.3849"/>
<text text-anchor="start" x="124" y="-154" font-family="Helvetica,sans-Serif" font-size="10.00" fill="#000000">input_bit = &#39;0&#39; &#160;&#160;</text>
</g>
<!-- S3&#45;&gt;S0 -->
<g id="edge8" class="edge transition">
<title>S3&#45;&gt;S0</title>
<path fill="none" stroke="#000000" d="M182.115,-130.7135C190.7383,-137.3385 198,-146.1411 198,-157 198,-224.5 198,-224.5 198,-224.5 198,-263.768 254.1329,-230.8177 278,-262 287.7248,-274.7054 284.6586,-283.4513 278,-298 262.9694,-330.8411 223.3067,-347.1706 193.0481,-355.0621"/>
<polygon fill="#000000" stroke="#000000" points="192.1033,-351.6894 183.1963,-357.4266 193.737,-358.4961 192.1033,-351.6894"/>
<text text-anchor="start" x="214" y="-236" font-family="Helvetica,sans-Serif" font-size="10.00" fill="#000000">not (input_bit = &#39;1&#39;) &#160;&#160;</text>
</g>
<!-- S4 -->
<g id="node6" class="node state regular">
<title>S4</title>
<polygon fill="#ffffff" fill-opacity="0.003922" stroke="transparent" stroke-width="2" points="194,-52 138,-52 138,-16 194,-16 194,-52"/>
<text text-anchor="start" x="158.6632" y="-30.2" font-family="Helvetica,sans-Serif" font-size="12.00" fill="#000000">S4</text>
<path fill="none" stroke="#000000" stroke-width="2" d="M150.3333,-17C150.3333,-17 181.6667,-17 181.6667,-17 187.3333,-17 193,-22.6667 193,-28.3333 193,-28.3333 193,-39.6667 193,-39.6667 193,-45.3333 187.3333,-51 181.6667,-51 181.6667,-51 150.3333,-51 150.3333,-51 144.6667,-51 139,-45.3333 139,-39.6667 139,-39.6667 139,-28.3333 139,-28.3333 139,-22.6667 144.6667,-17 150.3333,-17"/>
</g>
<!-- S3&#45;&gt;S4 -->
<g id="edge7" class="edge transition">
<title>S3&#45;&gt;S4</title>
<path fill="none" stroke="#000000" d="M156.6632,-97.8015C158.1857,-87.3976 160.1286,-74.1215 161.8473,-62.3768"/>
<polygon fill="#000000" stroke="#000000" points="165.3593,-62.549 163.3443,-52.1476 158.4331,-61.5354 165.3593,-62.549"/>
<text text-anchor="start" x="160" y="-72" font-family="Helvetica,sans-Serif" font-size="10.00" fill="#000000">input_bit = &#39;1&#39; &#160;&#160;</text>
</g>
<!-- S4&#45;&gt;S0 -->
<g id="edge9" class="edge transition">
<title>S4&#45;&gt;S0</title>
<path fill="none" stroke="#000000" d="M194.0749,-37.0889C216.7818,-41.3306 245,-51.3579 245,-75 245,-171.5 245,-171.5 245,-171.5 245,-210.3126 287.9058,-199.209 307,-233 311.6137,-241.1648 312,-244.1218 312,-253.5 312,-321 312,-321 312,-321 312,-345.4879 239.5936,-355.6246 193.1243,-359.6087"/>
<polygon fill="#000000" stroke="#000000" points="192.7585,-356.1266 183.0685,-360.4106 193.3151,-363.1045 192.7585,-356.1266"/>
<text text-anchor="start" x="290" y="-195" font-family="Helvetica,sans-Serif" font-size="10.00" fill="#000000">input_bit = &#39;1&#39; &#160;&#160;</text>
</g>
<!-- S4&#45;&gt;S4 -->
<g id="edge10" class="edge transition">
<title>S4&#45;&gt;S4</title>
<path fill="none" stroke="#000000" d="M194.0183,-38.8247C205.888,-39.1883 216,-37.5801 216,-34 216,-31.5387 211.2205,-30.0094 204.3762,-29.4121"/>
<polygon fill="#000000" stroke="#000000" points="204.0957,-25.9049 194.0183,-29.1753 203.9356,-32.903 204.0957,-25.9049"/>
<text text-anchor="start" x="216" y="-31" font-family="Helvetica,sans-Serif" font-size="10.00" fill="#000000">not (input_bit = &#39;1&#39;) &#160;&#160;</text>
</g>
</g>
</svg>
