<?xml version="1.0" encoding="UTF-8" standalone="no"?>
<!DOCTYPE svg PUBLIC "-//W3C//DTD SVG 1.1//EN"
 "http://www.w3.org/Graphics/SVG/1.1/DTD/svg11.dtd">
<!-- Generated by graphviz version 2.40.1 (20161225.0304)
 -->
<!-- Title: state transitions Pages: 1 -->
<svg width="449pt" height="434pt"
 viewBox="0.00 0.00 448.79 434.00" xmlns="http://www.w3.org/2000/svg" xmlns:xlink="http://www.w3.org/1999/xlink">
<g id="graph0" class="graph" transform="scale(1 1) rotate(0) translate(4 430)">
<title>state transitions</title>
<polygon fill="#ffffff" stroke="transparent" points="-4,4 -4,-430 444.792,-430 444.792,4 -4,4"/>
<g id="clust1" class="cluster state regular">
<title>cluster_next_state</title>
<path fill="none" stroke="#000000" stroke-width="2" d="M20,-8C20,-8 309,-8 309,-8 315,-8 321,-14 321,-20 321,-20 321,-406 321,-406 321,-412 315,-418 309,-418 309,-418 20,-418 20,-418 14,-418 8,-412 8,-406 8,-406 8,-20 8,-20 8,-14 14,-8 20,-8"/>
<text text-anchor="start" x="137.3208" y="-399.2" font-family="Helvetica,sans-Serif" font-size="12.00" fill="#000000">next_state</text>
</g>
<!-- next_state -->
<!-- S0 -->
<g id="node2" class="node state regular">
<title>S0</title>
<polygon fill="#ffffff" fill-opacity="0.003922" stroke="transparent" stroke-width="2" points="183,-380 127,-380 127,-344 183,-344 183,-380"/>
<text text-anchor="start" x="147.6632" y="-358.2" font-family="Helvetica,sans-Serif" font-size="12.00" fill="#000000">S0</text>
<path fill="none" stroke="#000000" stroke-width="2" d="M139.3333,-345C139.3333,-345 170.6667,-345 170.6667,-345 176.3333,-345 182,-350.6667 182,-356.3333 182,-356.3333 182,-367.6667 182,-367.6667 182,-373.3333 176.3333,-379 170.6667,-379 170.6667,-379 139.3333,-379 139.3333,-379 133.6667,-379 128,-373.3333 128,-367.6667 128,-367.6667 128,-356.3333 128,-356.3333 128,-350.6667 133.6667,-345 139.3333,-345"/>
</g>
<!-- S0&#45;&gt;S0 -->
<g id="edge2" class="edge transition">
<title>S0&#45;&gt;S0</title>
<path fill="none" stroke="#000000" d="M183.0183,-366.8247C194.888,-367.1883 205,-365.5801 205,-362 205,-359.5387 200.2205,-358.0094 193.3762,-357.4121"/>
<polygon fill="#000000" stroke="#000000" points="193.0957,-353.9049 183.0183,-357.1753 192.9356,-360.903 193.0957,-353.9049"/>
<text text-anchor="start" x="205" y="-359" font-family="Helvetica,sans-Serif" font-size="10.00" fill="#000000">not (input_bit = &#39;1&#39;) &#160;&#160;</text>
</g>
<!-- S1 -->
<g id="node3" class="node state regular">
<title>S1</title>
<polygon fill="#ffffff" fill-opacity="0.003922" stroke="transparent" stroke-width="2" points="80,-298 24,-298 24,-262 80,-262 80,-298"/>
<text text-anchor="start" x="44.6632" y="-276.2" font-family="Helvetica,sans-Serif" font-size="12.00" fill="#000000">S1</text>
<path fill="none" stroke="#000000" stroke-width="2" d="M36.3333,-263C36.3333,-263 67.6667,-263 67.6667,-263 73.3333,-263 79,-268.6667 79,-274.3333 79,-274.3333 79,-285.6667 79,-285.6667 79,-291.3333 73.3333,-297 67.6667,-297 67.6667,-297 36.3333,-297 36.3333,-297 30.6667,-297 25,-291.3333 25,-285.6667 25,-285.6667 25,-274.3333 25,-274.3333 25,-268.6667 30.6667,-263 36.3333,-263"/>
</g>
<!-- S0&#45;&gt;S1 -->
<g id="edge1" class="edge transition">
<title>S0&#45;&gt;S1</title>
<path fill="none" stroke="#000000" d="M126.781,-355.7118C100.5883,-349.2613 64.3481,-338.5593 55.498,-327 51.4503,-321.7132 49.6225,-315.0385 49.0122,-308.3924"/>
<polygon fill="#000000" stroke="#000000" points="52.51,-308.1406 48.9114,-298.1757 45.5104,-308.2097 52.51,-308.1406"/>
<text text-anchor="start" x="55" y="-318" font-family="Helvetica,sans-Serif" font-size="10.00" fill="#000000">input_bit = &#39;1&#39; &#160;&#160;</text>
</g>
<!-- S1&#45;&gt;S0 -->
<g id="edge4" class="edge transition">
<title>S1&#45;&gt;S0</title>
<path fill="none" stroke="#000000" d="M80.052,-289.5384C94.3036,-295.3449 111.2532,-303.818 124,-315 130.4066,-320.6202 136.0451,-327.8638 140.6956,-334.9731"/>
<polygon fill="#000000" stroke="#000000" points="137.8584,-337.0441 146.0412,-343.7742 143.8413,-333.4102 137.8584,-337.0441"/>
<text text-anchor="start" x="134" y="-318" font-family="Helvetica,sans-Serif" font-size="10.00" fill="#000000">not (input_bit = &#39;1&#39;) &#160;&#160;</text>
</g>
<!-- S2 -->
<g id="node4" class="node state regular">
<title>S2</title>
<polygon fill="#ffffff" fill-opacity="0.003922" stroke="transparent" stroke-width="2" points="80,-216 24,-216 24,-180 80,-180 80,-216"/>
<text text-anchor="start" x="44.6632" y="-194.2" font-family="Helvetica,sans-Serif" font-size="12.00" fill="#000000">S2</text>
<path fill="none" stroke="#000000" stroke-width="2" d="M36.3333,-181C36.3333,-181 67.6667,-181 67.6667,-181 73.3333,-181 79,-186.6667 79,-192.3333 79,-192.3333 79,-203.6667 79,-203.6667 79,-209.3333 73.3333,-215 67.6667,-215 67.6667,-215 36.3333,-215 36.3333,-215 30.6667,-215 25,-209.3333 25,-203.6667 25,-203.6667 25,-192.3333 25,-192.3333 25,-186.6667 30.6667,-181 36.3333,-181"/>
</g>
<!-- S1&#45;&gt;S2 -->
<g id="edge3" class="edge transition">
<title>S1&#45;&gt;S2</title>
<path fill="none" stroke="#000000" d="M52,-261.8015C52,-251.3976 52,-238.1215 52,-226.3768"/>
<polygon fill="#000000" stroke="#000000" points="55.5001,-226.1476 52,-216.1476 48.5001,-226.1476 55.5001,-226.1476"/>
<text text-anchor="start" x="52" y="-236" font-family="Helvetica,sans-Serif" font-size="10.00" fill="#000000">input_bit = &#39;1&#39; &#160;&#160;</text>
</g>
<!-- S2&#45;&gt;S0 -->
<g id="edge6" class="edge transition">
<title>S2&#45;&gt;S0</title>
<path fill="none" stroke="#000000" d="M80.0388,-208.5588C94.2134,-214.5928 111.2726,-222.961 125,-233 157.0192,-256.416 153.2659,-275.8357 186.164,-298 203.4942,-309.6758 218.1937,-297.7584 230,-315 242.493,-333.2444 217.2443,-345.8285 192.736,-353.3511"/>
<polygon fill="#000000" stroke="#000000" points="191.7719,-349.9864 183.1053,-356.0806 193.6807,-356.7211 191.7719,-349.9864"/>
<text text-anchor="start" x="186" y="-277" font-family="Helvetica,sans-Serif" font-size="10.00" fill="#000000">not (input_bit = &#39;0&#39;) &#160;&#160;</text>
</g>
<!-- S3 -->
<g id="node5" class="node state regular">
<title>S3</title>
<polygon fill="#ffffff" fill-opacity="0.003922" stroke="transparent" stroke-width="2" points="92,-134 36,-134 36,-98 92,-98 92,-134"/>
<text text-anchor="start" x="56.6632" y="-112.2" font-family="Helvetica,sans-Serif" font-size="12.00" fill="#000000">S3</text>
<path fill="none" stroke="#000000" stroke-width="2" d="M48.3333,-99C48.3333,-99 79.6667,-99 79.6667,-99 85.3333,-99 91,-104.6667 91,-110.3333 91,-110.3333 91,-121.6667 91,-121.6667 91,-127.3333 85.3333,-133 79.6667,-133 79.6667,-133 48.3333,-133 48.3333,-133 42.6667,-133 37,-127.3333 37,-121.6667 37,-121.6667 37,-110.3333 37,-110.3333 37,-104.6667 42.6667,-99 48.3333,-99"/>
</g>
<!-- S2&#45;&gt;S3 -->
<g id="edge5" class="edge transition">
<title>S2&#45;&gt;S3</title>
<path fill="none" stroke="#000000" d="M52.6687,-179.6171C53.1639,-170.9049 54.0206,-160.3758 55.498,-151 55.8676,-148.6547 56.3145,-146.2352 56.8078,-143.8151"/>
<polygon fill="#000000" stroke="#000000" points="60.2237,-144.5774 59.0166,-134.0516 53.3962,-143.0328 60.2237,-144.5774"/>
<text text-anchor="start" x="55" y="-154" font-family="Helvetica,sans-Serif" font-size="10.00" fill="#000000">input_bit = &#39;0&#39; &#160;&#160;</text>
</g>
<!-- S3&#45;&gt;S0 -->
<g id="edge8" class="edge transition">
<title>S3&#45;&gt;S0</title>
<path fill="none" stroke="#000000" d="M92.2469,-125.5553C104.1029,-131.0739 116.7897,-139.2948 124,-151 139.18,-175.6434 110.3565,-193.0558 128,-216 152.8877,-248.3648 176.0731,-233.2196 215.164,-245 242.8646,-253.3478 260.4156,-239.0261 278,-262 301.2566,-292.3847 267.2976,-317.1488 234,-336 221.3839,-343.1425 206.5116,-348.6819 193.0936,-352.7769"/>
<polygon fill="#000000" stroke="#000000" points="191.8204,-349.5011 183.1778,-355.6294 193.7557,-356.2283 191.8204,-349.5011"/>
<text text-anchor="start" x="215" y="-236" font-family="Helvetica,sans-Serif" font-size="10.00" fill="#000000">not (input_bit = &#39;1&#39;) &#160;&#160;</text>
</g>
<!-- S4 -->
<g id="node6" class="node state regular">
<title>S4</title>
<polygon fill="#ffffff" fill-opacity="0.003922" stroke="transparent" stroke-width="2" points="103,-52 47,-52 47,-16 103,-16 103,-52"/>
<text text-anchor="start" x="67.6632" y="-30.2" font-family="Helvetica,sans-Serif" font-size="12.00" fill="#000000">S4</text>
<path fill="none" stroke="#000000" stroke-width="2" d="M59.3333,-17C59.3333,-17 90.6667,-17 90.6667,-17 96.3333,-17 102,-22.6667 102,-28.3333 102,-28.3333 102,-39.6667 102,-39.6667 102,-45.3333 96.3333,-51 90.6667,-51 90.6667,-51 59.3333,-51 59.3333,-51 53.6667,-51 48,-45.3333 48,-39.6667 48,-39.6667 48,-28.3333 48,-28.3333 48,-22.6667 53.6667,-17 59.3333,-17"/>
</g>
<!-- S3&#45;&gt;S4 -->
<g id="edge7" class="edge transition">
<title>S3&#45;&gt;S4</title>
<path fill="none" stroke="#000000" d="M66.4413,-97.8015C67.8369,-87.3976 69.6178,-74.1215 71.1934,-62.3768"/>
<polygon fill="#000000" stroke="#000000" points="74.7049,-62.5242 72.5656,-52.1476 67.767,-61.5934 74.7049,-62.5242"/>
<text text-anchor="start" x="70" y="-72" font-family="Helvetica,sans-Serif" font-size="10.00" fill="#000000">input_bit = &#39;1&#39; &#160;&#160;</text>
</g>
<!-- S4&#45;&gt;S0 -->
<g id="edge9" class="edge transition">
<title>S4&#45;&gt;S0</title>
<path fill="none" stroke="#000000" d="M103.4303,-36.9743C126.4246,-41.1406 155,-51.1218 155,-75 155,-171.5 155,-171.5 155,-171.5 155,-244.3757 259.3438,-177.8661 307,-233 313.1328,-240.0951 312,-244.1218 312,-253.5 312,-321 312,-321 312,-321 312,-345.4879 239.5936,-355.6246 193.1243,-359.6087"/>
<polygon fill="#000000" stroke="#000000" points="192.7585,-356.1266 183.0685,-360.4106 193.3151,-363.1045 192.7585,-356.1266"/>
<text text-anchor="start" x="283" y="-195" font-family="Helvetica,sans-Serif" font-size="10.00" fill="#000000">input_bit = &#39;1&#39; and prev_input = &#39;0&#39; &#160;&#160;</text>
</g>
<!-- S4&#45;&gt;S4 -->
<g id="edge10" class="edge transition">
<title>S4&#45;&gt;S4</title>
<path fill="none" stroke="#000000" d="M103.0183,-38.8247C114.888,-39.1883 125,-37.5801 125,-34 125,-31.5387 120.2205,-30.0094 113.3762,-29.4121"/>
<polygon fill="#000000" stroke="#000000" points="113.0957,-25.9049 103.0183,-29.1753 112.9356,-32.903 113.0957,-25.9049"/>
<text text-anchor="start" x="125" y="-31" font-family="Helvetica,sans-Serif" font-size="10.00" fill="#000000">not (input_bit = &#39;1&#39; and prev_input = &#39;0&#39;) &#160;&#160;</text>
</g>
</g>
</svg>
